<svg xmlns="http://www.w3.org/2000/svg" viewBox="0 0 100 71.54"><defs><style>.cls-1{fill:#fff;}</style></defs><g id="Layer_2" data-name="Layer 2"><g id="Layer_1-2" data-name="Layer 1"><path class="cls-1" d="M83.37.85a45,45,0,0,1,0,69.85,3.75,3.75,0,0,1-4.73-5.83,37.49,37.49,0,0,0,0-58.21A3.75,3.75,0,1,1,83.37.84ZM73.92,12.49a30,30,0,0,1,0,46.56,3.75,3.75,0,1,1-4.73-5.82,22.51,22.51,0,0,0,0-34.93,3.75,3.75,0,1,1,4.73-5.82ZM64.47,24.13a15,15,0,0,1,0,23.28,3.75,3.75,0,1,1-4.74-5.82,7.5,7.5,0,0,0,0-11.64,3.76,3.76,0,0,1,4.74-5.83ZM47.05,1.21a5,5,0,0,1,3,4.56v60a5,5,0,0,1-8.33,3.74L20.59,50.77H10a10,10,0,0,1-10-10v-10a10,10,0,0,1,10-10H20.59L41.67,2A5,5,0,0,1,47.05,1.21Z"/></g></g></svg>