<svg xmlns="http://www.w3.org/2000/svg" viewBox="0 0 100 77.79"><defs><style>.cls-1{fill:#fff;}</style></defs><g id="Layer_2" data-name="Layer 2"><g id="Layer_1-2" data-name="Layer 1"><path class="cls-1" d="M52.28.48a5.57,5.57,0,0,1,3.28,5.07V72.23a5.55,5.55,0,0,1-9.25,4.14L22.88,55.56H11.11A11.13,11.13,0,0,1,0,44.44V33.33A11.12,11.12,0,0,1,11.11,22.22H22.88L46.31,1.4A5.58,5.58,0,0,1,52.28.48Zm21.51,23L83.34,33l9.55-9.55a4.16,4.16,0,1,1,5.89,5.88l-9.55,9.55,9.55,9.55a4.16,4.16,0,1,1-5.89,5.89l-9.55-9.55-9.55,9.55a4.16,4.16,0,1,1-5.88-5.89l9.54-9.55-9.54-9.55a4.16,4.16,0,1,1,5.88-5.88Z"/></g></g></svg>