<svg xmlns="http://www.w3.org/2000/svg" viewBox="0 0 100 87.51"><defs><style>.cls-1{fill:#fff;}</style></defs><g id="Layer_2" data-name="Layer 2"><g id="Layer_1-2" data-name="Layer 1"><path class="cls-1" d="M50,0a7.8,7.8,0,0,1,6.74,3.87L98.93,75.75a7.82,7.82,0,0,1-6.74,11.76H7.81A7.81,7.81,0,0,1,1.07,75.75L43.26,3.87A7.77,7.77,0,0,1,50,0Zm0,25a4.68,4.68,0,0,0-4.69,4.69V51.57a4.69,4.69,0,0,0,9.37,0V29.69A4.68,4.68,0,0,0,50,25Zm6.25,43.75A6.25,6.25,0,1,0,50,75,6.25,6.25,0,0,0,56.25,68.75Z"/></g></g></svg>